<svg width="48" height="48" viewBox="0 0 48 48" fill="none" xmlns="http://www.w3.org/2000/svg">
<path d="M16.123 18.0688C16.411 12.8988 21.198 8.83984 27.006 8.83984C32.948 8.83984 37.796 13.0818 37.902 18.3758M37.9 18.3708C39.3764 18.8127 40.6705 19.7197 41.5895 20.9568C42.5086 22.1939 43.0033 23.6948 43 25.2358V26.3358C43.0037 28.2314 42.2545 30.051 40.9171 31.3944C39.5797 32.7377 38.5 33 36.5 33.5M13.164 33.4998C11.2684 33.5036 9.4489 32.7544 8.10551 31.417C6.76211 30.0796 6.00478 28.2634 6.00001 26.3678V25.2348C5.9963 23.3392 6.74549 21.5197 8.08288 20.1763C9.42028 18.8329 11.2364 18.0756 13.132 18.0708H16.148" stroke="#5762DF" stroke-width="1.5" stroke-linecap="round" stroke-linejoin="round"/>
<path d="M22.8596 31.8776H23.7737C24.4936 31.8776 24.8535 31.8776 25.1426 32.049C25.4329 32.2192 25.594 32.5266 25.9151 33.1414L27.6485 36.4482L30.0423 29.5923L31.7746 32.8991C32.0968 33.5139 32.2568 33.8212 32.547 33.9926C32.8361 34.1629 33.196 34.1629 33.9159 34.1629L36.5 33.5" stroke="#0478FD" stroke-width="1.5" stroke-linecap="round" stroke-linejoin="round"/>
<path d="M36 30.7347C35.1224 26.6383 31.6854 22.7807 29.1715 20.4188C28.4218 19.7062 27.427 19.3088 26.3926 19.3088C25.3582 19.3088 24.3634 19.7062 23.6137 20.4188C20.7113 23.1475 16.575 27.8712 16.575 32.6521C16.575 37.3392 20.2931 42.1612 26.3926 42.1612C30.2696 42.1612 33.1845 40.2141 34.7934 37.5906" stroke="#0478FD" stroke-width="1.5" stroke-linecap="round" stroke-linejoin="round"/>
</svg>
