<svg width="24" height="24" viewBox="0 0 24 24" fill="none" xmlns="http://www.w3.org/2000/svg">
<path d="M13.5661 15.1818L14.8672 19.4432H14.9155L16.2166 15.1818H17.7905L15.8274 21H13.9553L11.9922 15.1818H13.5661Z" fill="#007AFF"/>
<path d="M9.96032 15.1818H11.3637V18.9347C11.3637 19.3684 11.2605 19.7462 11.0541 20.0682C10.8476 20.3883 10.5597 20.6364 10.1904 20.8125C9.82111 20.9867 9.39213 21.0739 8.9035 21.0739C8.40918 21.0739 7.97736 20.9867 7.60804 20.8125C7.23873 20.6364 6.95179 20.3883 6.74725 20.0682C6.5427 19.7462 6.44043 19.3684 6.44043 18.9347V15.1818H7.84668V18.8125C7.84668 19.0133 7.89024 19.1922 7.97736 19.3494C8.06638 19.5066 8.19043 19.6297 8.34952 19.7188C8.50861 19.8078 8.69327 19.8523 8.9035 19.8523C9.11373 19.8523 9.29744 19.8078 9.45463 19.7188C9.61373 19.6297 9.73778 19.5066 9.82679 19.3494C9.91581 19.1922 9.96032 19.0133 9.96032 18.8125V15.1818Z" fill="#007AFF"/>
<path d="M3 12H7C7 10.6739 7.52678 9.40215 8.46447 8.46447C9.40215 7.52678 10.6739 7 12 7C13.3261 7 14.5979 7.52678 15.5355 8.46447C16.4732 9.40215 17 10.6739 17 12H21C21.2652 12 21.5196 12.1054 21.7071 12.2929C21.8946 12.4804 22 12.7348 22 13C22 13.2652 21.8946 13.5196 21.7071 13.7071C21.5196 13.8946 21.2652 14 21 14H3C2.73478 14 2.48043 13.8946 2.29289 13.7071C2.10536 13.5196 2 13.2652 2 13C2 12.7348 2.10536 12.4804 2.29289 12.2929C2.48043 12.1054 2.73478 12 3 12ZM15 12C15 11.2044 14.6839 10.4413 14.1213 9.87868C13.5587 9.31607 12.7956 9 12 9C11.2044 9 10.4413 9.31607 9.87868 9.87868C9.31607 10.4413 9 11.2044 9 12H15ZM12 2L14.39 5.42C13.65 5.15 12.84 5 12 5C11.16 5 10.35 5.15 9.61 5.42L12 2ZM3.34 7L7.5 6.65C6.87935 7.17424 6.3519 7.79974 5.94 8.5C5.5 9.24 5.25 10 5.11 10.79L3.34 7ZM20.65 7L18.88 10.79C18.597 9.17067 17.7548 7.702 16.5 6.64L20.65 7Z" fill="#FFBB16"/>
</svg>
