<svg width="24" height="24" fill="none" xmlns="http://www.w3.org/2000/svg"><path d="m20 11-2-3-5-2-6 2-2 3 2 1h2l4 2c2 0 2 1 5-1l2-2Zm-8 2-4-1-2-1 2-2 5-2 4 2 2 2c-1 1-3 2-7 2Zm1-5a3 3 0 0 0-3 4 3 3 0 0 0 4 2 3 3 0 0 0-1-6Zm0 5a2 2 0 0 1-2-2 2 2 0 0 1 2-2 2 2 0 0 1 0 4Z" fill="#424FDD"/><path d="M7 14h2l3 2h7a1 1 0 1 1 1 1c-2 1-6 2-8 0l-4-1H5a1 1 0 0 1-1-1l3-1Zm1-3H7l-3 1a1 1 0 1 0 1 1h3l4 1c2 2 6 1 8 0a1 1 0 0 0-1-1h-2l-1 1-4-1a11 11 0 0 0-4-2Zm4 11Zm-7-3h3l4 1c2 2 6 1 8 0a1 1 0 1 0-1-1h-7l-3-2-5 1a1 1 0 0 0 1 1Z" fill="#007AFF"/></svg>